<?xml version="1.0" encoding="UTF-8"?>
<svg xmlns="http://www.w3.org/2000/svg" width="1400" height="933" viewBox="0 0 1400 933" fill="none" role="img" aria-labelledby="band-title">
  <title id="band-title">Landscape and sustainable energy illustration</title>
  <defs>
    <linearGradient id="g" x1="0" y1="0" x2="1" y2="1">
      <stop offset="0" stop-color="#d8f3dc"/>
      <stop offset="0.5" stop-color="#b7e4c7"/>
      <stop offset="1" stop-color="#74c69d"/>
    </linearGradient>
  </defs>
  <rect width="1400" height="933" fill="url(#g)"/>
  <path fill="#40916c" opacity="0.35" d="M0 520 C260 380 520 620 780 480s460-180 620-80v533H0Z"/>
  <path fill="#2d6a4f" opacity="0.22" d="M0 620 C340 500 620 760 980 580s420-120 420-120v473H0Z"/>
  <g opacity="0.9">
    <rect x="980" y="220" width="16" height="420" fill="#1b4332"/>
    <path fill="#ffffff" opacity="0.85" d="M988 160l62 110h-124z"/>
    <circle cx="988" cy="230" r="6" fill="#ffffff"/>
  </g>
  <g opacity="0.75">
    <rect x="1120" y="280" width="12" height="360" fill="#1b4332"/>
    <path fill="#ffffff" opacity="0.8" d="M1126 230l48 84h-96z"/>
  </g>
  <circle cx="1180" cy="140" r="72" fill="#fff9c4" opacity="0.9"/>
</svg>
